<svg width="287" height="85" viewBox="0 0 287 85" fill="none" xmlns="http://www.w3.org/2000/svg">
<path d="M39.7381 54.9229C63.4203 16.5475 23.1592 0 23.1592 0C33.5143 8.63638 37.128 38.0162 18.1638 38.4053C4.71077 38.6811 7.04587 24.2551 8.49222 21.2117C6.97777 23.3578 -3.21137 41.3976 1.02211 59.5931C5.25645 77.7895 30.8532 85 30.8532 85C25.5581 69.1361 35.6825 61.4379 39.7381 54.9229Z" fill="white"/>
<path d="M50.3631 32.3817C52.4615 36.2823 48.1531 52.6076 41.8612 60.0411C30.1942 73.8576 33.8735 80.8646 34.7844 84.1242C34.9283 83.7836 36.4419 82.1994 47.2014 74.8272C70.4621 58.9293 50.3631 32.3817 50.3631 32.3817ZM34.8116 84.217C34.804 84.1872 34.7929 84.1557 34.7853 84.1242C34.7435 84.2195 34.8116 84.217 34.8116 84.217ZM8.49219 21.2118C8.61648 21.0339 8.69394 20.9326 8.69394 20.9326C8.60494 21.0079 8.53568 21.1037 8.49219 21.2118Z" fill="white"/>
<path d="M74.6357 31.7791V61.8922H81.4146V31.7791H74.6357ZM108.572 61.8922H114.268V31.7791H107.531V49.549C106.49 47.9874 105.371 46.354 104.186 44.6608C102.996 42.9675 101.799 41.3282 100.597 39.7486C99.3939 38.1751 98.2152 36.6853 97.0545 35.2972C95.8998 33.9091 94.8408 32.7304 93.8835 31.7791H88.367V61.8922H95.0561V42.1658C97.605 45.1454 100.01 48.3165 102.272 51.679C104.533 55.0415 106.634 58.4459 108.572 61.8922ZM143.555 31.7791H118.612V37.5588H127.694V61.8922H134.473V37.5588H143.555V31.7791ZM147.899 61.8922H169.235V56.2022H154.678V48.9447H166.716V43.3804H154.678V37.469H168.236V31.7791H147.899V61.8922ZM183.056 31.4321C181.811 31.4321 180.399 31.4859 178.82 31.6056C177.24 31.7193 175.715 31.9227 174.237 32.2099V61.8922H181.016V50.8952H184.36C184.941 51.5952 185.521 52.367 186.101 53.2226C186.676 54.0782 187.262 54.9817 187.86 55.939C188.453 56.8963 189.033 57.8775 189.596 58.8946C190.164 59.9058 190.72 60.9049 191.271 61.8922H198.875C198.355 60.7913 197.786 59.6664 197.182 58.5237C196.572 57.3809 195.944 56.28 195.291 55.221C194.639 54.162 193.981 53.1508 193.311 52.1815C192.647 51.2063 192.007 50.3447 191.402 49.5968C193.227 48.843 194.621 47.8079 195.597 46.4856C196.566 45.1693 197.051 43.4522 197.051 41.3401C197.051 37.9477 195.848 35.4467 193.443 33.8433C191.037 32.2338 187.579 31.4321 183.056 31.4321ZM183.451 37.2118C185.623 37.2118 187.262 37.5229 188.381 38.1451C189.494 38.7674 190.056 39.8144 190.056 41.2923C190.056 42.8299 189.506 43.9129 188.405 44.5531C187.304 45.1933 185.473 45.5104 182.924 45.5104H181.016V37.3374C181.363 37.3135 181.734 37.2836 182.123 37.2536C182.512 37.2237 182.954 37.2118 183.451 37.2118ZM212.26 31.4321C211.015 31.4321 209.567 31.4859 207.916 31.6056C206.265 31.7193 204.697 31.9227 203.219 32.2099V61.8922H209.998V51.8106H212.128C216.651 51.8106 220.127 51.0089 222.557 49.3994C224.992 47.7899 226.206 45.1753 226.206 41.5555C226.206 37.9597 225.004 35.3749 222.604 33.7954C220.199 32.2218 216.747 31.4321 212.26 31.4321ZM212.696 37.2118C213.678 37.2118 214.575 37.2716 215.389 37.4032C216.197 37.5349 216.885 37.7682 217.453 38.0973C218.015 38.4323 218.452 38.8751 218.757 39.4255C219.062 39.976 219.212 40.67 219.212 41.5136C219.212 43.2487 218.62 44.4394 217.429 45.0736C216.244 45.7138 214.473 46.0309 212.128 46.0309H209.998V37.3374C210.345 37.3135 210.758 37.2836 211.237 37.2536C211.715 37.2237 212.2 37.2118 212.696 37.2118ZM236.898 46.8147C236.898 45.3668 237.078 44.0385 237.443 42.8359C237.802 41.6333 238.328 40.6042 239.004 39.7486C239.686 38.899 240.518 38.2289 241.505 37.7502C242.492 37.2716 243.617 37.0383 244.898 37.0383C246.142 37.0383 247.261 37.2656 248.26 37.7323C249.259 38.193 250.103 38.8511 250.785 39.7067C251.461 40.5623 251.988 41.5914 252.347 42.794C252.712 43.9966 252.891 45.3369 252.891 46.8147C252.891 48.2925 252.712 49.6208 252.347 50.8114C251.988 51.9961 251.461 53.0192 250.785 53.8748C250.103 54.7304 249.259 55.3885 248.26 55.8492C247.261 56.3159 246.142 56.5492 244.898 56.5492C243.617 56.5492 242.492 56.3159 241.505 55.8492C240.518 55.3885 239.686 54.7304 239.004 53.8748C238.328 53.0192 237.802 51.9961 237.443 50.8114C237.078 49.6208 236.898 48.2925 236.898 46.8147ZM259.885 46.8147C259.885 44.236 259.496 41.9684 258.713 40.0119C257.929 38.0554 256.858 36.41 255.5 35.0818C254.136 33.7475 252.544 32.7484 250.719 32.0842C248.894 31.4141 246.95 31.0791 244.898 31.0791C242.893 31.0791 240.991 31.4141 239.178 32.0842C237.371 32.7484 235.779 33.7475 234.403 35.0818C233.027 36.41 231.932 38.0554 231.118 40.0119C230.311 41.9684 229.904 44.236 229.904 46.8147C229.904 49.3934 230.293 51.661 231.077 53.6115C231.86 55.568 232.931 57.2074 234.289 58.5237C235.654 59.84 237.245 60.8331 239.07 61.5033C240.895 62.1674 242.839 62.5024 244.898 62.5024C247.01 62.5024 248.984 62.1674 250.827 61.5033C252.664 60.8331 254.255 59.84 255.583 58.5237C256.918 57.2074 257.971 55.568 258.737 53.6115C259.502 51.661 259.885 49.3934 259.885 46.8147ZM286.355 36.4699V31.7791H263.84V37.469H277.356C276.225 38.8332 275.005 40.3768 273.682 42.1C272.366 43.8231 271.068 45.6061 269.793 47.4429C268.519 49.2797 267.298 51.1106 266.126 52.9175C264.947 54.7304 263.96 56.3757 263.146 57.8536V61.8922H286.827V56.2022H271.493C272.534 54.4611 273.718 52.6363 275.053 50.7217C276.387 48.8131 277.733 46.9583 279.097 45.1633C280.455 43.3624 281.772 41.7051 283.052 40.1854C284.326 38.6657 285.427 37.4272 286.355 36.4699ZM274.879 28.8653C275.806 28.8653 276.608 28.5602 277.29 27.9559C277.972 27.3456 278.313 26.5199 278.313 25.4789C278.313 24.4318 277.972 23.6061 277.29 23.0018C276.608 22.3916 275.806 22.0864 274.879 22.0864C273.952 22.0864 273.15 22.3916 272.468 23.0018C271.786 23.6061 271.445 24.4318 271.445 25.4789C271.445 26.5199 271.786 27.3456 272.468 27.9559C273.15 28.5602 273.952 28.8653 274.879 28.8653Z" fill="white"/>
</svg>
