<svg width="135" height="40" viewBox="0 0 135 40" fill="none" xmlns="http://www.w3.org/2000/svg">
<path d="M18.7003 25.8461C29.8448 7.78704 10.8984 0 10.8984 0C15.7714 4.06418 17.472 17.89 8.54765 18.0731C2.21683 18.2029 3.3157 11.4141 3.99634 9.98197C3.28365 10.9919 -1.51123 19.4812 0.480995 28.0438C2.47362 36.6068 14.5191 40 14.5191 40C12.0273 32.5347 16.7918 28.9119 18.7003 25.8461Z" fill="#29292E"/>
<path d="M23.7 15.2384C24.6875 17.074 22.6601 24.7564 19.6992 28.2546C14.2088 34.7564 15.9402 38.0539 16.3689 39.5878C16.4366 39.4275 17.1489 38.682 22.2122 35.2127C33.1584 27.7314 23.7 15.2384 23.7 15.2384ZM16.3817 39.6315C16.3781 39.6174 16.3729 39.6026 16.3693 39.5878C16.3497 39.6327 16.3817 39.6315 16.3817 39.6315ZM3.99609 9.98199C4.05458 9.89826 4.09104 9.85059 4.09104 9.85059C4.04916 9.88599 4.01656 9.9311 3.99609 9.98199Z" fill="#29292E"/>
<path d="M35.123 14.9549V29.1258H38.3131V14.9549H35.123ZM51.0931 29.1258H53.7735V14.9549H50.6032V23.3172C50.1132 22.5823 49.5867 21.8137 49.0292 21.0169C48.4689 20.2201 47.9058 19.4486 47.3399 18.7053C46.774 17.9648 46.2193 17.2637 45.6731 16.6105C45.1297 15.9572 44.6313 15.4026 44.1808 14.9549H41.5848V29.1258H44.7326V19.8428C45.9321 21.2449 47.064 22.7372 48.1282 24.3195C49.1925 25.9019 50.1808 27.504 51.0931 29.1258ZM67.5558 14.9549H55.8176V17.6748H60.0917V29.1258H63.2818V17.6748H67.5558V14.9549ZM69.5999 29.1258H79.6403V26.4481H72.79V23.0328H78.455V20.4143H72.79V17.6325H79.1701V14.9549H69.5999V29.1258ZM86.1443 14.7916C85.5587 14.7916 84.8942 14.8169 84.1509 14.8732C83.4076 14.9267 82.6896 15.0225 81.9942 15.1576V29.1258H85.1842V23.9507H86.7581C87.0312 24.2801 87.3044 24.6433 87.5775 25.046C87.8478 25.4486 88.1237 25.8738 88.4053 26.3242C88.684 26.7747 88.9571 27.2365 89.2218 27.7151C89.4893 28.191 89.7511 28.6612 90.0101 29.1258H93.5888C93.3438 28.6077 93.0763 28.0784 92.7919 27.5406C92.5047 27.0028 92.2091 26.4847 91.9022 25.9864C91.5953 25.488 91.2856 25.0122 90.9703 24.5561C90.6577 24.0971 90.3565 23.6917 90.0721 23.3397C90.9308 22.985 91.5869 22.4979 92.0458 21.8756C92.5019 21.2562 92.73 20.4481 92.73 19.4542C92.73 17.8578 92.1641 16.6809 91.0322 15.9263C89.9003 15.1689 88.2729 14.7916 86.1443 14.7916ZM86.3302 17.5115C87.3522 17.5115 88.1237 17.6579 88.6502 17.9507C89.1739 18.2435 89.4386 18.7362 89.4386 19.4317C89.4386 20.1553 89.1795 20.6649 88.6615 20.9662C88.1434 21.2674 87.2818 21.4167 86.0824 21.4167H85.1842V17.5706C85.3475 17.5593 85.5221 17.5452 85.7051 17.5312C85.8881 17.5171 86.0965 17.5115 86.3302 17.5115ZM99.8872 14.7916C99.3016 14.7916 98.6202 14.8169 97.8431 14.8732C97.066 14.9267 96.3283 15.0225 95.6329 15.1576V29.1258H98.8229V24.3815H99.8253C101.954 24.3815 103.59 24.0042 104.733 23.2468C105.879 22.4894 106.45 21.259 106.45 19.5556C106.45 17.8634 105.884 16.6471 104.755 15.9038C103.624 15.1633 101.999 14.7916 99.8872 14.7916ZM100.093 17.5115C100.555 17.5115 100.977 17.5396 101.36 17.6016C101.74 17.6635 102.064 17.7733 102.331 17.9282C102.596 18.0858 102.801 18.2942 102.945 18.5532C103.089 18.8123 103.159 19.1389 103.159 19.5359C103.159 20.3524 102.88 20.9127 102.32 21.2111C101.762 21.5124 100.929 21.6616 99.8253 21.6616H98.8229V17.5706C98.9862 17.5593 99.1805 17.5452 99.4058 17.5312C99.631 17.5171 99.8591 17.5115 100.093 17.5115ZM111.482 22.0305C111.482 21.3491 111.566 20.724 111.738 20.1581C111.907 19.5922 112.155 19.1079 112.473 18.7053C112.794 18.3055 113.185 17.9901 113.65 17.7649C114.114 17.5396 114.644 17.4298 115.246 17.4298C115.832 17.4298 116.358 17.5368 116.829 17.7564C117.299 17.9732 117.696 18.2829 118.017 18.6856C118.335 19.0882 118.583 19.5725 118.752 20.1384C118.923 20.7043 119.008 21.335 119.008 22.0305C119.008 22.7259 118.923 23.351 118.752 23.9113C118.583 24.4688 118.335 24.9502 118.017 25.3529C117.696 25.7555 117.299 26.0652 116.829 26.282C116.358 26.5016 115.832 26.6114 115.246 26.6114C114.644 26.6114 114.114 26.5016 113.65 26.282C113.185 26.0652 112.794 25.7555 112.473 25.3529C112.155 24.9502 111.907 24.4688 111.738 23.9113C111.566 23.351 111.482 22.7259 111.482 22.0305ZM122.299 22.0305C122.299 20.817 122.116 19.7498 121.747 18.8292C121.379 17.9085 120.875 17.1342 120.235 16.5091C119.594 15.8812 118.845 15.411 117.986 15.0985C117.127 14.7831 116.212 14.6255 115.246 14.6255C114.303 14.6255 113.408 14.7831 112.555 15.0985C111.704 15.411 110.955 15.8812 110.308 16.5091C109.66 17.1342 109.145 17.9085 108.762 18.8292C108.382 19.7498 108.19 20.817 108.19 22.0305C108.19 23.244 108.373 24.3111 108.742 25.229C109.111 26.1497 109.615 26.9212 110.254 27.5406C110.896 28.16 111.645 28.6274 112.504 28.9427C113.363 29.2553 114.278 29.4129 115.246 29.4129C116.24 29.4129 117.169 29.2553 118.037 28.9427C118.901 28.6274 119.65 28.16 120.275 27.5406C120.903 26.9212 121.398 26.1497 121.759 25.229C122.119 24.3111 122.299 23.244 122.299 22.0305ZM134.755 17.1623V14.9549H124.16V17.6325H130.521C129.989 18.2745 129.414 19.0009 128.792 19.8118C128.173 20.6227 127.562 21.4617 126.962 22.3261C126.362 23.1905 125.788 24.0521 125.236 24.9024C124.681 25.7555 124.217 26.5298 123.834 27.2252V29.1258H134.978V26.4481H127.762C128.251 25.6288 128.809 24.77 129.437 23.8691C130.065 22.9709 130.698 22.098 131.34 21.2534C131.979 20.4059 132.599 19.626 133.201 18.9108C133.801 18.1956 134.319 17.6128 134.755 17.1623ZM129.355 13.5837C129.792 13.5837 130.169 13.4401 130.49 13.1557C130.811 12.8685 130.971 12.48 130.971 11.9901C130.971 11.4974 130.811 11.1088 130.49 10.8244C130.169 10.5372 129.792 10.3936 129.355 10.3936C128.919 10.3936 128.541 10.5372 128.22 10.8244C127.9 11.1088 127.739 11.4974 127.739 11.9901C127.739 12.48 127.9 12.8685 128.22 13.1557C128.541 13.4401 128.919 13.5837 129.355 13.5837Z" fill="#29292E"/>
</svg>
