<svg width="26" height="19" viewBox="0 0 26 19" fill="none" xmlns="http://www.w3.org/2000/svg">
<path d="M25.0714 0H0.928571C0.414955 0 0 0.385937 0 0.863636V18.1364C0 18.6141 0.414955 19 0.928571 19H25.0714C25.585 19 26 18.6141 26 18.1364V0.863636C26 0.385937 25.585 0 25.0714 0ZM23.9107 2.99034V17.0568H2.08929V2.99034L1.28839 2.41009L2.42879 1.04716L3.67076 1.94588H22.3321L23.5741 1.04716L24.7145 2.41009L23.9107 2.99034ZM22.3321 1.94318L13 8.69034L3.66786 1.94318L2.42589 1.04446L1.28549 2.40739L2.08638 2.98764L11.9989 10.1558C12.284 10.3618 12.6347 10.4736 12.9956 10.4736C13.3566 10.4736 13.7073 10.3618 13.9924 10.1558L23.9107 2.99034L24.7116 2.41009L23.5712 1.04716L22.3321 1.94318Z" fill="white"/>
</svg>
