<svg width="17" height="24" viewBox="0 0 17 24" fill="none" xmlns="http://www.w3.org/2000/svg">
<path d="M11.2202 15.5077C17.9069 4.67222 6.53906 0 6.53906 0C9.46286 2.43851 10.4832 10.734 5.12859 10.8438C1.3301 10.9217 1.98942 6.84849 2.3978 5.98918C1.97019 6.59514 -0.90674 11.6887 0.288597 16.8263C1.48417 21.9641 8.71148 24 8.71148 24C7.21641 19.5208 10.0751 17.3472 11.2202 15.5077Z" fill="#222222"/>
<path d="M14.2208 9.14307C14.8133 10.2444 13.5968 14.8539 11.8203 16.9528C8.52607 20.8539 9.56493 22.8324 9.82212 23.7527C9.86274 23.6566 10.2901 23.2093 13.3281 21.1277C19.8958 16.6389 14.2208 9.14307 14.2208 9.14307ZM9.82981 23.7789C9.82765 23.7705 9.82452 23.7616 9.82236 23.7527C9.81058 23.7796 9.82981 23.7789 9.82981 23.7789ZM2.39844 5.98924C2.43353 5.939 2.4554 5.9104 2.4554 5.9104C2.43027 5.93165 2.41072 5.95871 2.39844 5.98924Z" fill="#222222"/>
</svg>
