<svg width="27" height="26" viewBox="0 0 27 26" fill="none" xmlns="http://www.w3.org/2000/svg">
<path d="M20.7977 25.5802C20.5455 25.5794 20.2941 25.5518 20.0477 25.4977C15.3577 24.5275 11.0369 22.2527 7.58273 18.9352C4.20223 15.6103 1.85767 11.3771 0.832729 6.74765C0.711875 6.17069 0.741538 5.57233 0.918863 5.01014C1.09619 4.44795 1.41521 3.94086 1.84523 3.53765L4.84523 0.650153C4.99846 0.505244 5.18052 0.394275 5.37954 0.32449C5.57856 0.254704 5.79006 0.227671 6.00023 0.245153C6.21815 0.267888 6.42845 0.338088 6.61633 0.450817C6.80421 0.563546 6.96512 0.716067 7.08773 0.897653L10.8377 6.44015C10.9784 6.65521 11.0462 6.90973 11.0314 7.16625C11.0165 7.42278 10.9197 7.66776 10.7552 7.86515L8.87273 10.1152C9.62247 11.7745 10.6842 13.2742 12.0002 14.5327C13.3077 15.8368 14.8531 16.878 16.5527 17.6002L18.8852 15.7477C19.0811 15.5928 19.3195 15.5013 19.5687 15.4852C19.8179 15.4691 20.0661 15.5293 20.2802 15.6577L25.9427 19.3177C26.137 19.4337 26.3026 19.5922 26.427 19.7813C26.5513 19.9703 26.6313 20.1851 26.6609 20.4095C26.6905 20.6339 26.6689 20.862 26.5978 21.0769C26.5267 21.2918 26.4078 21.4877 26.2502 21.6502L23.3252 24.5452C22.993 24.8758 22.5986 25.1374 22.1648 25.3151C21.7311 25.4927 21.2665 25.5828 20.7977 25.5802ZM5.88023 1.73015L2.88023 4.61765C2.63832 4.84307 2.45924 5.12756 2.36062 5.44317C2.26199 5.75877 2.24721 6.09461 2.31773 6.41765C3.27077 10.7618 5.46152 14.7369 8.62523 17.8627C11.8759 20.9838 15.9419 23.1234 20.3552 24.0352C20.6893 24.105 21.0354 24.0908 21.3627 23.994C21.6899 23.8971 21.988 23.7206 22.2302 23.4802L25.1552 20.5852L19.6877 17.0527L17.1827 19.0477C17.0868 19.1236 16.9738 19.1749 16.8536 19.1971C16.7333 19.2193 16.6094 19.2118 16.4927 19.1752C14.4128 18.4088 12.5278 17.1923 10.9727 15.6127C9.36424 14.1106 8.1157 12.2647 7.32023 10.2127C7.28658 10.0884 7.28546 9.95763 7.31698 9.83285C7.34851 9.70806 7.41161 9.59349 7.50023 9.50015L9.52523 7.07765L5.88023 1.73015Z" fill="white"/>
</svg>
