<svg width="36" height="91" viewBox="0 0 36 91" fill="none" xmlns="http://www.w3.org/2000/svg">
<path d="M32 83.454H31.076V89.222L22.872 83.426H21.976V90.384H22.9V84.658L31.076 90.426H32V83.454ZM29.242 82.5989C30.978 82.5989 32.168 81.5629 32.168 79.7569C32.168 78.0629 31.076 76.8869 29.256 76.8869H21.976V77.8949H29.228C30.418 77.8949 31.216 78.4829 31.216 79.7569C31.216 80.9749 30.432 81.6189 29.242 81.6189H28.85V82.5989H29.242ZM32 68.5182H31.076V73.5162H27.422V68.9942H26.512V73.5162H22.9V68.5322H21.976V74.5242H32V68.5182ZM32 63.4195C32 60.4095 29.984 58.4075 26.988 58.4075C23.992 58.4075 21.976 60.4235 21.976 63.4475V66.4715H32L32 63.4195ZM22.9 63.4895C22.9 61.0115 24.482 59.4435 26.988 59.4435C29.48 59.4435 31.076 61.0115 31.076 63.4615L31.076 65.4635H22.9V63.4895ZM19.554 52.3447V53.3667L21.22 54.2067V53.4087L19.554 52.3447ZM32 50.2587H31.076V56.0267L22.872 50.2307H21.976V57.1887H22.9V51.4627L31.076 57.2307H32V50.2587ZM32 43.5748H23.656L32 38.0448V37.0508H21.976V38.0448H30.32L21.976 43.5608V44.5828H32V43.5748ZM21.976 33.5943V34.6023H32L32 33.5943H21.976ZM20.94 28.413C20.94 28.035 20.618 27.713 20.24 27.713C19.862 27.713 19.526 28.035 19.526 28.413C19.526 28.805 19.862 29.113 20.24 29.113C20.618 29.113 20.94 28.805 20.94 28.413ZM32 24.829H31.076V30.597L22.872 24.801H21.976V31.759H22.9V26.033L31.076 31.801H32V24.829ZM32 17.0299H31.076V22.0279H27.422V17.5059H26.512V22.0279H22.9L22.9 17.0439H21.976L21.976 23.0359H32V17.0299ZM29.242 15.9212C30.978 15.9212 32.168 14.8852 32.168 13.0792C32.168 11.3852 31.076 10.2092 29.256 10.2092H21.976V11.2172H29.228C30.418 11.2172 31.216 11.8052 31.216 13.0792C31.216 14.2972 30.432 14.9412 29.242 14.9412H28.85V15.9212H29.242Z" fill="black"/>
<line x1="1.5" y1="7" x2="1.5" y2="89" stroke="black" stroke-width="3"/>
</svg>
