<svg fill="none" height="91" viewBox="0 0 43 91" width="43" xmlns="http://www.w3.org/2000/svg"><path d="m39 83.454h-.924v5.768l-8.204-5.796h-.896v6.958h.924v-5.726l8.176 5.768h.924zm-2.758-.8551c1.736 0 2.926-1.036 2.926-2.842 0-1.694-1.092-2.87-2.912-2.87h-7.28v1.008h7.252c1.19 0 1.988.588 1.988 1.862 0 1.218-.784 1.862-1.974 1.862h-.392v.98zm2.758-14.0807h-.924v4.998h-3.654v-4.522h-.91v4.522h-3.612v-4.984h-.924v5.992h10.024zm0-5.0987c0-3.01-2.016-5.012-5.012-5.012s-5.012 2.016-5.012 5.04v3.024h10.024zm-9.1.07c0-2.478 1.582-4.046 4.088-4.046 2.492 0 4.088 1.568 4.088 4.018v2.002h-8.176zm-3.346-11.1448v1.022l1.666.84v-.798zm12.446-2.086h-.924v5.768l-8.204-5.796h-.896v6.958h.924v-5.726l8.176 5.768h.924zm0-6.6839h-8.344l8.344-5.53v-.994h-10.024v.994h8.344l-8.344 5.516v1.022h10.024zm-10.024-9.9805v1.008h10.024v-1.008zm-1.036-5.1813c0-.378-.322-.7-.7-.7s-.714.322-.714.7c0 .392.336.7.714.7s.7-.308.7-.7zm11.06-3.584h-.924v5.768l-8.204-5.796h-.896v6.958h.924v-5.726l8.176 5.768h.924zm0-7.7991h-.924v4.998h-3.654v-4.522h-.91v4.522h-3.612v-4.984h-.924v5.992h10.024zm-2.758-1.1087c1.736 0 2.926-1.036 2.926-2.842 0-1.694-1.092-2.87-2.912-2.87h-7.28v1.008h7.252c1.19 0 1.988.588 1.988 1.862 0 1.218-.784 1.862-1.974 1.862h-.392v.98z" fill="#000"/><path d="m8.5 7v82" stroke="#000" stroke-width="3"/><circle cx="8.5" cy="45.5" fill="#000" r="8.5"/></svg>